<?xml version="1.0" standalone="no"?>
<!DOCTYPE svg PUBLIC "-//W3C//DTD SVG 20010904//EN"
 "http://www.w3.org/TR/2001/REC-SVG-20010904/DTD/svg10.dtd">
<svg version="1.0" xmlns="http://www.w3.org/2000/svg"
 width="512.000000pt" height="512.000000pt" viewBox="0 0 512.000000 512.000000"
 preserveAspectRatio="xMidYMid meet">
<metadata>
Created by potrace 1.14, written by Peter Selinger 2001-2017
</metadata>
<g transform="translate(0.000000,512.000000) scale(0.100000,-0.100000)"
fill="#000000" stroke="none">
<path d="M856 5099 c-278 -56 -485 -186 -659 -414 -58 -75 -134 -238 -163
-350 -32 -121 -40 -307 -18 -430 33 -188 116 -366 242 -513 l45 -53 89 88 88
88 -25 -65 c-75 -187 -122 -365 -150 -575 -12 -82 -14 -123 -15 -270 -2 -200
8 -300 54 -532 52 -263 231 -636 426 -885 90 -116 298 -321 408 -403 50 -37
92 -71 92 -75 0 -3 -18 -58 -41 -121 -22 -63 -63 -177 -90 -253 -66 -188 -64
-241 15 -301 67 -51 184 -32 226 37 10 17 53 129 96 249 43 121 83 219 90 219
6 0 44 -15 85 -34 150 -69 397 -141 554 -162 22 -2 49 -7 60 -9 33 -7 225 -19
300 -19 70 0 240 11 286 19 13 2 42 6 65 9 144 18 411 97 553 162 41 19 79 34
85 34 6 0 23 -33 38 -72 14 -40 49 -138 78 -218 58 -164 76 -198 118 -222 103
-61 242 12 242 128 0 29 -30 126 -90 296 -50 138 -89 255 -88 259 2 4 46 40
98 80 124 94 327 299 417 420 210 281 357 602 419 914 4 22 8 42 9 45 5 22 21
137 30 225 7 63 7 319 1 395 -6 60 -16 140 -21 166 -3 12 -7 39 -11 60 -10 65
-62 255 -90 329 -14 39 -28 79 -31 90 -3 11 -9 25 -13 30 -4 6 -10 19 -14 30
-4 11 33 -20 82 -68 l88 -88 45 52 c131 152 221 345 247 528 9 61 8 265 -1
319 -73 448 -435 805 -882 869 -58 9 -231 8 -295 0 -188 -26 -402 -123 -525
-239 -22 -21 -43 -38 -47 -38 -21 0 -1 -31 59 -92 37 -38 63 -68 57 -68 -5 0
-14 4 -20 8 -5 5 -54 25 -109 45 -439 160 -907 183 -1359 67 -81 -21 -237 -74
-311 -105 l-40 -17 68 69 c37 38 67 72 67 77 0 12 -72 74 -139 119 -127 87
-283 150 -431 173 -92 14 -256 11 -344 -7z"/>
</g>
</svg>
